<svg width="20" height="21" viewBox="0 0 20 21" fill="none" xmlns="http://www.w3.org/2000/svg">
<g id="Star" clip-path="url(#clip0_4084_185)">
<path id="Star_2" d="M9.53834 1.90684C9.70914 1.49619 10.2909 1.49619 10.4617 1.90684L12.5278 6.87432C12.5998 7.04744 12.7626 7.16572 12.9495 7.1807L18.3123 7.61064C18.7556 7.64618 18.9354 8.19943 18.5976 8.48877L14.5117 11.9888C14.3693 12.1107 14.3071 12.3021 14.3506 12.4845L15.5989 17.7177C15.7021 18.1503 15.2315 18.4923 14.8519 18.2604L10.2606 15.4561C10.1006 15.3583 9.89938 15.3583 9.73937 15.4561L5.14806 18.2604C4.76851 18.4923 4.29788 18.1503 4.40108 17.7177L5.64939 12.4845C5.69289 12.3021 5.6307 12.1107 5.48831 11.9888L1.40241 8.48877C1.06464 8.19943 1.24441 7.64618 1.68773 7.61064L7.05054 7.1807C7.23744 7.16572 7.40024 7.04744 7.47225 6.87432L9.53834 1.90684Z" fill="#FEC84B"/>
</g>
<defs>
<clipPath id="clip0_4084_185">
<rect width="20" height="20" fill="white" transform="translate(0 0.296875)"/>
</clipPath>
</defs>
</svg>
